G75*
%MOIN*%
%OFA0B0*%
%FSLAX25Y25*%
%IPPOS*%
%LPD*%
%AMOC8*
5,1,8,0,0,1.08239X$1,22.5*
%
%ADD10C,0.06400*%
%ADD11R,0.05918X0.06706*%
%ADD12R,0.06706X0.05918*%
%ADD13R,0.05918X0.07099*%
%ADD14C,0.06800*%
%ADD15R,0.09300X0.05000*%
%ADD16R,0.41784X0.43320*%
%ADD17C,0.06000*%
%ADD18R,0.06312X0.04737*%
%ADD19R,0.07099X0.05918*%
%ADD20R,0.06706X0.06706*%
%ADD21R,0.07887X0.10249*%
%ADD22C,0.04343*%
%ADD23C,0.00500*%
%ADD24R,0.07099X0.06784*%
%ADD25C,0.12611*%
%ADD26C,0.08200*%
%ADD27R,0.02178X0.02276*%
%ADD28R,0.02276X0.02178*%
%ADD29C,0.04762*%
%ADD30C,0.03778*%
D10*
X0242867Y0093696D02*
X0242867Y0099296D01*
X0252867Y0099296D02*
X0252867Y0093696D01*
X0496574Y0280874D02*
X0496574Y0286474D01*
X0506574Y0286474D02*
X0506574Y0280874D01*
D11*
G36*
X0354345Y0229326D02*
X0358530Y0233511D01*
X0363271Y0228770D01*
X0359086Y0224585D01*
X0354345Y0229326D01*
G37*
G36*
X0349056Y0224037D02*
X0353241Y0228222D01*
X0357982Y0223481D01*
X0353797Y0219296D01*
X0349056Y0224037D01*
G37*
G36*
X0326130Y0232496D02*
X0321945Y0236681D01*
X0326686Y0241422D01*
X0330871Y0237237D01*
X0326130Y0232496D01*
G37*
G36*
X0320841Y0237785D02*
X0316656Y0241970D01*
X0321397Y0246711D01*
X0325582Y0242526D01*
X0320841Y0237785D01*
G37*
G36*
X0316471Y0216770D02*
X0312286Y0212585D01*
X0307545Y0217326D01*
X0311730Y0221511D01*
X0316471Y0216770D01*
G37*
G36*
X0311182Y0211481D02*
X0306997Y0207296D01*
X0302256Y0212037D01*
X0306441Y0216222D01*
X0311182Y0211481D01*
G37*
G36*
X0347671Y0186770D02*
X0343486Y0182585D01*
X0338745Y0187326D01*
X0342930Y0191511D01*
X0347671Y0186770D01*
G37*
G36*
X0342382Y0181481D02*
X0338197Y0177296D01*
X0333456Y0182037D01*
X0337641Y0186222D01*
X0342382Y0181481D01*
G37*
X0347869Y0169559D03*
X0355349Y0169559D03*
D12*
X0489053Y0157967D03*
X0489053Y0150487D03*
X0498187Y0150559D03*
X0498187Y0158040D03*
X0212217Y0146485D03*
X0212217Y0139005D03*
X0211809Y0129499D03*
X0211809Y0122019D03*
X0202809Y0121419D03*
X0202809Y0128899D03*
X0202417Y0138805D03*
X0202417Y0146285D03*
X0188322Y0146408D03*
X0179626Y0146622D03*
X0179626Y0154103D03*
X0188322Y0153888D03*
D13*
X0187658Y0239647D03*
X0180178Y0239647D03*
X0186927Y0295496D03*
X0194407Y0295496D03*
X0358927Y0151496D03*
X0366407Y0151496D03*
X0317407Y0100496D03*
X0309927Y0100496D03*
X0439127Y0089296D03*
X0446607Y0089296D03*
X0484927Y0294496D03*
X0492407Y0294496D03*
D14*
X0218574Y0229800D02*
X0218574Y0223800D01*
X0208574Y0223800D02*
X0208574Y0229800D01*
X0198574Y0229800D02*
X0198574Y0223800D01*
X0188574Y0223800D02*
X0188574Y0229800D01*
D15*
X0221267Y0141296D03*
X0221267Y0131296D03*
X0221267Y0121296D03*
D16*
X0254067Y0131296D03*
D17*
X0251667Y0261896D02*
X0251667Y0267096D01*
X0241667Y0267096D02*
X0241667Y0261896D01*
X0231667Y0261896D02*
X0231667Y0267096D01*
X0221667Y0267096D02*
X0221667Y0261896D01*
X0211667Y0261896D02*
X0211667Y0267096D01*
X0201667Y0267096D02*
X0201667Y0261896D01*
D18*
X0224937Y0196496D03*
X0233598Y0192756D03*
X0233598Y0200236D03*
D19*
X0241267Y0200236D03*
X0241267Y0192756D03*
X0189267Y0172036D03*
X0189267Y0164556D03*
X0171267Y0171756D03*
X0171267Y0179236D03*
X0233067Y0091836D03*
X0233067Y0084356D03*
X0478467Y0112956D03*
X0478467Y0120436D03*
X0504867Y0132156D03*
X0504867Y0139636D03*
D20*
X0462667Y0098186D03*
X0462667Y0084406D03*
X0222867Y0083806D03*
X0222867Y0097586D03*
X0179557Y0295496D03*
X0165778Y0295496D03*
X0205167Y0365106D03*
X0205167Y0378886D03*
X0245167Y0378886D03*
X0245167Y0365106D03*
X0284167Y0365106D03*
X0284167Y0378886D03*
X0323167Y0378886D03*
X0323167Y0365106D03*
X0358167Y0365106D03*
X0358167Y0378886D03*
X0396167Y0378886D03*
X0396167Y0365106D03*
X0433667Y0365106D03*
X0433667Y0378886D03*
X0474167Y0378886D03*
X0474167Y0365106D03*
X0500778Y0294496D03*
X0514557Y0294496D03*
D21*
X0165095Y0116096D03*
X0181040Y0116096D03*
D22*
X0173667Y0252835D03*
X0173667Y0270158D03*
D23*
X0218568Y0253643D02*
X0218858Y0254265D01*
X0219251Y0254827D01*
X0219737Y0255312D01*
X0220299Y0255706D01*
X0220921Y0255996D01*
X0221584Y0256173D01*
X0222267Y0256233D01*
X0222951Y0256173D01*
X0223614Y0255996D01*
X0224236Y0255706D01*
X0224798Y0255312D01*
X0225283Y0254827D01*
X0225677Y0254265D01*
X0225967Y0253643D01*
X0226145Y0252980D01*
X0226204Y0252296D01*
X0226145Y0251613D01*
X0225967Y0250950D01*
X0225677Y0250328D01*
X0225283Y0249766D01*
X0224798Y0249280D01*
X0224236Y0248887D01*
X0223614Y0248597D01*
X0222951Y0248419D01*
X0222267Y0248359D01*
X0221584Y0248419D01*
X0220921Y0248597D01*
X0220299Y0248887D01*
X0219737Y0249280D01*
X0219251Y0249766D01*
X0218858Y0250328D01*
X0218568Y0250950D01*
X0218390Y0251613D01*
X0218330Y0252296D01*
X0218390Y0252980D01*
X0218568Y0253643D01*
X0218523Y0253477D02*
X0226011Y0253477D01*
X0226145Y0252978D02*
X0218390Y0252978D01*
X0218346Y0252480D02*
X0226188Y0252480D01*
X0226177Y0251981D02*
X0218358Y0251981D01*
X0218425Y0251483D02*
X0226110Y0251483D01*
X0225976Y0250984D02*
X0218559Y0250984D01*
X0218784Y0250486D02*
X0225751Y0250486D01*
X0225438Y0249987D02*
X0219096Y0249987D01*
X0219528Y0249489D02*
X0225006Y0249489D01*
X0224384Y0248990D02*
X0220151Y0248990D01*
X0221313Y0248492D02*
X0223222Y0248492D01*
X0225812Y0253975D02*
X0218723Y0253975D01*
X0219004Y0254474D02*
X0225531Y0254474D01*
X0225138Y0254972D02*
X0219397Y0254972D01*
X0219963Y0255471D02*
X0224572Y0255471D01*
X0223671Y0255969D02*
X0220864Y0255969D01*
X0448658Y0103865D02*
X0449051Y0104427D01*
X0449537Y0104912D01*
X0450099Y0105306D01*
X0450721Y0105596D01*
X0451384Y0105773D01*
X0452067Y0105833D01*
X0452751Y0105773D01*
X0453414Y0105596D01*
X0454036Y0105306D01*
X0454598Y0104912D01*
X0455083Y0104427D01*
X0455477Y0103865D01*
X0455767Y0103243D01*
X0455945Y0102580D01*
X0456004Y0101896D01*
X0455945Y0101213D01*
X0455767Y0100550D01*
X0455477Y0099928D01*
X0455083Y0099366D01*
X0454598Y0098880D01*
X0454036Y0098487D01*
X0453414Y0098197D01*
X0452751Y0098019D01*
X0452067Y0097959D01*
X0451384Y0098019D01*
X0450721Y0098197D01*
X0450099Y0098487D01*
X0449537Y0098880D01*
X0449051Y0099366D01*
X0448658Y0099928D01*
X0448368Y0100550D01*
X0448190Y0101213D01*
X0448130Y0101896D01*
X0448190Y0102580D01*
X0448368Y0103243D01*
X0448658Y0103865D01*
X0448699Y0103923D02*
X0455436Y0103923D01*
X0455682Y0103425D02*
X0448453Y0103425D01*
X0448283Y0102926D02*
X0455852Y0102926D01*
X0455958Y0102428D02*
X0448177Y0102428D01*
X0448133Y0101929D02*
X0456001Y0101929D01*
X0455964Y0101431D02*
X0448171Y0101431D01*
X0448265Y0100932D02*
X0455869Y0100932D01*
X0455713Y0100434D02*
X0448422Y0100434D01*
X0448654Y0099935D02*
X0455480Y0099935D01*
X0455133Y0099437D02*
X0449002Y0099437D01*
X0449479Y0098938D02*
X0454656Y0098938D01*
X0453935Y0098440D02*
X0450200Y0098440D01*
X0449048Y0104422D02*
X0455087Y0104422D01*
X0454586Y0104920D02*
X0449548Y0104920D01*
X0450341Y0105419D02*
X0453793Y0105419D01*
X0464667Y0280359D02*
X0463984Y0280419D01*
X0463321Y0280597D01*
X0462699Y0280887D01*
X0462137Y0281280D01*
X0461651Y0281766D01*
X0461258Y0282328D01*
X0460968Y0282950D01*
X0460790Y0283613D01*
X0460730Y0284296D01*
X0460790Y0284980D01*
X0460968Y0285643D01*
X0461258Y0286265D01*
X0461651Y0286827D01*
X0462137Y0287312D01*
X0462699Y0287706D01*
X0463321Y0287996D01*
X0463984Y0288173D01*
X0464667Y0288233D01*
X0465351Y0288173D01*
X0466014Y0287996D01*
X0466636Y0287706D01*
X0467198Y0287312D01*
X0467683Y0286827D01*
X0468077Y0286265D01*
X0468367Y0285643D01*
X0468545Y0284980D01*
X0468604Y0284296D01*
X0468545Y0283613D01*
X0468367Y0282950D01*
X0468077Y0282328D01*
X0467683Y0281766D01*
X0467198Y0281280D01*
X0466636Y0280887D01*
X0466014Y0280597D01*
X0465351Y0280419D01*
X0464667Y0280359D01*
X0464244Y0280396D02*
X0465091Y0280396D01*
X0466647Y0280895D02*
X0462687Y0280895D01*
X0462024Y0281393D02*
X0467311Y0281393D01*
X0467772Y0281892D02*
X0461563Y0281892D01*
X0461229Y0282390D02*
X0468106Y0282390D01*
X0468339Y0282889D02*
X0460996Y0282889D01*
X0460850Y0283387D02*
X0468484Y0283387D01*
X0468568Y0283886D02*
X0460766Y0283886D01*
X0460738Y0284384D02*
X0468597Y0284384D01*
X0468553Y0284883D02*
X0460782Y0284883D01*
X0460898Y0285381D02*
X0468437Y0285381D01*
X0468256Y0285880D02*
X0461078Y0285880D01*
X0461337Y0286378D02*
X0467997Y0286378D01*
X0467633Y0286877D02*
X0461701Y0286877D01*
X0462227Y0287375D02*
X0467108Y0287375D01*
X0466275Y0287874D02*
X0463059Y0287874D01*
D24*
X0444667Y0365516D03*
X0444667Y0379886D03*
X0406167Y0379886D03*
X0406167Y0365516D03*
X0368167Y0365516D03*
X0368167Y0379886D03*
X0314167Y0379886D03*
X0314167Y0365516D03*
X0274167Y0365516D03*
X0274167Y0379886D03*
X0235167Y0379886D03*
X0235167Y0365516D03*
X0195167Y0365516D03*
X0195167Y0379886D03*
X0485167Y0379886D03*
X0485167Y0365516D03*
D25*
X0389667Y0321496D03*
X0389667Y0285496D03*
X0291667Y0285496D03*
X0291667Y0321496D03*
X0202037Y0200740D03*
X0174478Y0200740D03*
X0174478Y0098378D03*
X0202037Y0098378D03*
X0480108Y0098276D03*
X0507667Y0098276D03*
X0507667Y0200638D03*
X0480108Y0200638D03*
D26*
X0419667Y0275496D03*
X0419667Y0285496D03*
X0419667Y0295496D03*
D27*
X0512951Y0153315D03*
X0514919Y0153315D03*
X0516888Y0153315D03*
X0518856Y0153315D03*
X0518856Y0147410D03*
X0516888Y0147410D03*
X0514919Y0147410D03*
X0512951Y0147410D03*
X0166494Y0147410D03*
X0164526Y0147410D03*
X0162557Y0147410D03*
X0160589Y0147410D03*
X0160589Y0153315D03*
X0162557Y0153315D03*
X0164526Y0153315D03*
X0166494Y0153315D03*
D28*
X0166494Y0151347D03*
X0166494Y0149378D03*
X0160589Y0149378D03*
X0160589Y0151347D03*
X0512951Y0151347D03*
X0512951Y0149378D03*
X0518856Y0149378D03*
X0518856Y0151347D03*
D29*
X0513667Y0117696D03*
X0478867Y0132096D03*
X0428467Y0130896D03*
X0428467Y0115296D03*
X0427267Y0096096D03*
X0404667Y0083096D03*
X0393667Y0093696D03*
X0367667Y0092496D03*
X0361667Y0092496D03*
X0347667Y0091496D03*
X0331667Y0093496D03*
X0319667Y0107496D03*
X0301667Y0106496D03*
X0300067Y0121296D03*
X0307667Y0131496D03*
X0333667Y0134496D03*
X0346667Y0134496D03*
X0358667Y0143496D03*
X0369667Y0143496D03*
X0372667Y0149496D03*
X0349667Y0156496D03*
X0341163Y0169803D03*
X0333667Y0172496D03*
X0333363Y0188003D03*
X0332163Y0195203D03*
X0348067Y0207696D03*
X0358563Y0218003D03*
X0362163Y0222803D03*
X0349563Y0229403D03*
X0348963Y0236003D03*
X0340563Y0238403D03*
X0329763Y0243203D03*
X0338763Y0246203D03*
X0330963Y0250403D03*
X0355667Y0257496D03*
X0360667Y0259496D03*
X0365667Y0259496D03*
X0355667Y0269496D03*
X0360667Y0273496D03*
X0364667Y0277496D03*
X0369667Y0282496D03*
X0360267Y0304496D03*
X0356667Y0304496D03*
X0352667Y0304496D03*
X0348667Y0304496D03*
X0344667Y0304496D03*
X0340667Y0304496D03*
X0336667Y0304496D03*
X0332667Y0304496D03*
X0328667Y0304496D03*
X0324667Y0304496D03*
X0320667Y0304496D03*
X0336667Y0297496D03*
X0328667Y0291496D03*
X0302667Y0261496D03*
X0275667Y0262496D03*
X0266667Y0270496D03*
X0249667Y0250496D03*
X0243467Y0245696D03*
X0241067Y0232096D03*
X0251867Y0232496D03*
X0253467Y0225696D03*
X0272667Y0225496D03*
X0274667Y0215496D03*
X0286667Y0220496D03*
X0300963Y0220403D03*
X0308163Y0221603D03*
X0280667Y0201496D03*
X0285667Y0197496D03*
X0294667Y0181496D03*
X0298667Y0176496D03*
X0276667Y0173496D03*
X0276667Y0179496D03*
X0265667Y0175496D03*
X0260667Y0181496D03*
X0242667Y0207496D03*
X0235667Y0218496D03*
X0264667Y0242496D03*
X0268667Y0239496D03*
X0238667Y0277496D03*
X0230467Y0286896D03*
X0221667Y0296496D03*
X0200667Y0297496D03*
X0199667Y0280496D03*
X0162667Y0283496D03*
X0160667Y0293496D03*
X0196667Y0247496D03*
X0166867Y0222096D03*
X0188467Y0201696D03*
X0165667Y0188496D03*
X0211267Y0187296D03*
X0211267Y0170496D03*
X0186067Y0130896D03*
X0212467Y0114096D03*
X0235667Y0108896D03*
X0240467Y0108896D03*
X0245267Y0108896D03*
X0250067Y0108896D03*
X0264467Y0108896D03*
X0269267Y0108896D03*
X0269267Y0102896D03*
X0264467Y0102896D03*
X0275267Y0108896D03*
X0275267Y0113696D03*
X0275267Y0118496D03*
X0275267Y0123296D03*
X0275267Y0128096D03*
X0275267Y0132896D03*
X0275267Y0137696D03*
X0275267Y0142496D03*
X0275267Y0147296D03*
X0271667Y0152096D03*
X0307667Y0152496D03*
X0319667Y0158496D03*
X0332667Y0156496D03*
X0360667Y0183496D03*
X0366226Y0185740D03*
X0376163Y0184803D03*
X0370163Y0173803D03*
X0390163Y0188803D03*
X0382667Y0197496D03*
X0385667Y0202496D03*
X0384267Y0227496D03*
X0402963Y0232403D03*
X0420067Y0232896D03*
X0403867Y0251296D03*
X0425667Y0267496D03*
X0452467Y0253296D03*
X0504067Y0219696D03*
X0516067Y0184896D03*
X0469267Y0184896D03*
X0436867Y0208896D03*
X0405667Y0180096D03*
X0396067Y0165696D03*
X0374667Y0120496D03*
X0346667Y0118496D03*
X0333667Y0118496D03*
X0311667Y0091496D03*
X0187267Y0088896D03*
X0452467Y0290496D03*
X0457667Y0358496D03*
X0444667Y0360496D03*
X0437667Y0358496D03*
X0415667Y0357496D03*
X0406667Y0360496D03*
X0398667Y0358496D03*
X0380667Y0361496D03*
X0367667Y0360496D03*
X0360667Y0360496D03*
X0351667Y0361496D03*
X0346667Y0365496D03*
X0334667Y0366496D03*
X0335667Y0359496D03*
X0326667Y0360496D03*
X0313667Y0360496D03*
X0300667Y0360496D03*
X0287667Y0359496D03*
X0273667Y0360496D03*
X0260667Y0360496D03*
X0248667Y0358496D03*
X0234667Y0360496D03*
X0222667Y0360496D03*
X0207667Y0356496D03*
X0195667Y0359496D03*
X0188667Y0356496D03*
X0181667Y0347496D03*
X0200667Y0345496D03*
X0185667Y0371496D03*
X0205667Y0384496D03*
X0211867Y0386896D03*
X0219667Y0393496D03*
X0244667Y0393496D03*
X0245667Y0385496D03*
X0284667Y0385496D03*
X0294667Y0394496D03*
X0306667Y0393496D03*
X0323667Y0384496D03*
X0355667Y0384496D03*
X0361667Y0386496D03*
X0371667Y0399496D03*
X0385667Y0394496D03*
X0395667Y0384496D03*
X0433667Y0384496D03*
X0462667Y0393496D03*
X0469667Y0383496D03*
X0473667Y0357496D03*
X0485667Y0358496D03*
X0493667Y0361496D03*
X0357667Y0338496D03*
X0315667Y0333496D03*
X0314667Y0326496D03*
X0306667Y0336496D03*
X0493267Y0087696D03*
D30*
X0497667Y0121496D03*
X0485667Y0121496D03*
X0443667Y0138296D03*
X0443667Y0157496D03*
X0422067Y0176696D03*
X0434067Y0222296D03*
X0429267Y0223496D03*
X0453267Y0234296D03*
X0453267Y0241496D03*
X0486867Y0233096D03*
X0477267Y0295496D03*
X0395667Y0237896D03*
X0288867Y0165896D03*
X0282867Y0162296D03*
X0263667Y0161096D03*
X0258867Y0158696D03*
X0254067Y0161096D03*
X0243267Y0175496D03*
X0243267Y0181496D03*
X0225267Y0203096D03*
X0246867Y0231896D03*
X0178467Y0235496D03*
X0189267Y0179096D03*
X0203667Y0165896D03*
X0202467Y0161096D03*
X0202467Y0155096D03*
X0189267Y0159896D03*
X0171267Y0156296D03*
X0167667Y0163496D03*
X0165267Y0125096D03*
X0216867Y0084296D03*
X0396867Y0114296D03*
X0409730Y0130559D03*
X0415667Y0127496D03*
X0404067Y0092696D03*
M02*
